<svg xmlns="http://www.w3.org/2000/svg" width="68" height="42.594" viewBox="0 0 68 42.594">
  <g id="Group_1658" data-name="Group 1658" transform="translate(-503.348 -761.539)">
    <g id="Group_1656" data-name="Group 1656" transform="translate(503.348 761.694)">
      <g id="Group_1655" data-name="Group 1655" transform="translate(13.147 13.139)">
        <path id="Path_535" data-name="Path 535" d="M585.906,833.526v4.494a.692.692,0,1,0,1.384,0v-4.494a.692.692,0,1,0-1.384,0Z" transform="translate(-583.658 -832.834)" fill="#d7df23"/>
        <path id="Path_536" data-name="Path 536" d="M574.543,846.272h4.495a.692.692,0,1,0,0-1.384h-4.495a.692.692,0,0,0,0,1.384Z" transform="translate(-573.851 -842.64)" fill="#d7df23"/>
      </g>
      <path id="Path_537" data-name="Path 537" d="M565.181,818.7c0,.161-.006.323-.019.484q-.008.108-.021.215c-.005.048-.031.16,0-.019-.009.046-.014.094-.021.141a6.11,6.11,0,0,1-.221.909c-.046.139-.1.274-.151.412-.033.1.071-.158.007-.017l-.038.084q-.057.125-.12.247a6.153,6.153,0,0,1-.46.759c-.031.043-.074.139-.121.165l.053-.068-.057.071-.057.07q-.145.174-.3.337t-.326.314c-.051.045-.1.09-.154.134l-.087.072-.053.042.05-.039a.781.781,0,0,1-.183.134q-.093.065-.188.127-.191.124-.391.234t-.388.2l-.1.047c-.072.033-.014.039.038-.016a.889.889,0,0,1-.258.1,6.123,6.123,0,0,1-.875.243c-.069.014-.139.027-.209.038a.515.515,0,0,1-.141.021c.011,0,.172-.02.042-.006-.16.016-.319.031-.479.037a6.66,6.66,0,0,1-.966-.037c-.16-.017.122.019.019,0l-.117-.018q-.116-.019-.232-.042c-.153-.031-.3-.068-.454-.111s-.281-.085-.419-.136c-.065-.024-.129-.049-.194-.074-.145-.056.108.052.017.007-.048-.023-.1-.043-.147-.066a6.168,6.168,0,0,1-.777-.433q-.086-.056-.169-.115c-.044-.031-.156-.085-.183-.134.051.092.082.066.015.01l-.088-.072q-.087-.072-.171-.148a6.189,6.189,0,0,1-.628-.652l-.072-.088c-.056-.067-.082-.036.01.015-.049-.027-.1-.139-.134-.183q-.131-.186-.248-.381t-.21-.38q-.047-.092-.09-.185c-.019-.042-.038-.084-.057-.125-.057-.126.052.136,0,0a6.856,6.856,0,0,1-.275-.861q-.052-.217-.088-.438c-.006-.039-.012-.078-.018-.117-.016-.1.02.179,0,.019-.008-.079-.017-.159-.023-.238a6.264,6.264,0,0,1,0-.968c.006-.08.015-.159.023-.238.013-.129-.009.031-.007.042a.51.51,0,0,1,.021-.141c.025-.155.057-.309.094-.461s.075-.285.12-.426q.032-.1.067-.2a.863.863,0,0,1,.1-.258c-.007.006-.068.154-.016.038l.047-.1q.043-.094.09-.186.112-.224.243-.439c.071-.116.146-.231.224-.342a.778.778,0,0,1,.134-.183c-.071.043-.072.091-.025.033l.1-.123a6.21,6.21,0,0,1,.614-.634c.056-.051.113-.1.171-.148l.07-.057.035-.028q.087-.069-.033.025c.026-.047.121-.09.165-.121q.1-.073.207-.141a6.157,6.157,0,0,1,.8-.439l.084-.037c.141-.064-.112.041-.017.007.065-.023.128-.051.193-.075q.239-.088.485-.156.2-.056.41-.1.116-.024.232-.043l.094-.015c.143-.023-.155.018.028,0a6.24,6.24,0,0,1,.942-.034c.16.006.319.021.479.037.069.007.066-.024-.042-.007a.447.447,0,0,1,.117.018q.128.021.255.046a6.108,6.108,0,0,1,.9.254c.054.02.18.043.215.084-.006-.007-.154-.068-.038-.016l.084.037q.229.1.449.228.179.1.351.212.1.062.188.127l.074.053c.016.012.168.125.075.055s.078.063.107.088c.058.048.115.1.171.148q.169.151.326.314t.3.337c.024.029.15.19.087.107s.02.028.028.039l.08.11a6.14,6.14,0,0,1,.468.781q.051.1.1.207l.038.084c.052.116-.009-.033-.016-.038.04.035.064.161.084.215q.048.13.09.263a6.156,6.156,0,0,1,.211.888.448.448,0,0,1,.018.117c.018-.108-.013-.111-.007-.042s.017.159.023.238c.012.161.018.322.019.484a.692.692,0,1,0,1.384,0,6.842,6.842,0,0,0-1.241-3.931,7.022,7.022,0,0,0-3.3-2.522,6.889,6.889,0,0,0-7.574,2.058,6.978,6.978,0,0,0-1.579,3.911,6.842,6.842,0,0,0,3.973,6.711,7.013,7.013,0,0,0,4.262.485,6.885,6.885,0,0,0,5.36-5.57,7.562,7.562,0,0,0,.1-1.142.692.692,0,1,0-1.384,0Z" transform="translate(-543.621 -802.617)" fill="#225f2b"/>
      <path id="Path_538" data-name="Path 538" d="M546.893,805.011a11.125,11.125,0,0,1-.953.943q-.119.1-.241.2l-.122.1c-.044.035-.153.126-.047.038-.175.145-.368.273-.557.4a10.867,10.867,0,0,1-1.165.68,3.3,3.3,0,0,1-.6.28s.116-.047.042-.018l-.074.03-.174.069q-.163.063-.327.12a10.778,10.778,0,0,1-1.329.368c-.224.047-.449.086-.675.119-.138.021.1-.012-.035,0l-.165.019q-.194.021-.388.035a11.02,11.02,0,0,1-1.345.014q-.3-.015-.6-.047l-.142-.016c-.087-.01-.117-.019,0,0-.109-.019-.219-.032-.328-.05a10.782,10.782,0,0,1-2.279-.648l-.064-.026c-.072-.029.061.025.059.025a.488.488,0,0,1-.126-.055q-.136-.061-.271-.125-.258-.123-.509-.259a10.856,10.856,0,0,1-.988-.607q-.121-.084-.24-.171l-.109-.081-.054-.041c-.074-.054.1.083.032.025-.147-.118-.294-.236-.437-.36a10.954,10.954,0,0,1-.83-.8q-.2-.215-.389-.441-.087-.1-.172-.211c-.016-.02-.1-.14-.044-.055s-.038-.051-.055-.074a10.855,10.855,0,0,1-1.178-2l-.056-.126-.027-.063c-.032-.071.026.061.025.06a1.4,1.4,0,0,1-.12-.3q-.1-.27-.192-.545a10.768,10.768,0,0,1-.3-1.15q-.061-.3-.106-.6l-.01-.071c-.012-.079.009.068.009.066,0-.047-.012-.095-.017-.142q-.018-.154-.031-.309a10.943,10.943,0,0,1-.036-1.234q.008-.3.032-.6.013-.155.03-.31c.005-.047.011-.095.017-.142.014-.12-.02.135,0-.028a10.79,10.79,0,0,1,.6-2.3c.033-.086.067-.172.1-.257a.319.319,0,0,1,.027-.064s-.057.13-.025.06c.022-.049.043-.1.065-.147q.122-.271.258-.536a10.828,10.828,0,0,1,.587-1q.156-.237.325-.465l.081-.109c.077-.1-.078.1,0,0,.066-.083.132-.165.2-.247a10.891,10.891,0,0,1,.784-.846,11.518,11.518,0,0,1,.869-.759c.1-.08-.1.074,0,0l.109-.081q.119-.088.24-.172.242-.169.493-.324a10.783,10.783,0,0,1,1.02-.558q.124-.06.249-.116l.126-.056c.018-.008.091-.042,0,0s0,0,.023-.01c.178-.072.357-.141.539-.2a10.759,10.759,0,0,1,1.139-.329q.3-.068.6-.12.14-.024.281-.044l.07-.01s-.146.018-.066.009l.166-.02a10.926,10.926,0,0,1,1.233-.066q.371,0,.742.027.169.012.338.029l.168.018.084.01c.083.01.037,0-.017,0a3.4,3.4,0,0,1,.713.125q.337.071.67.163t.678.213q.154.054.306.113l.152.06.075.031c.075.03.036.007-.015-.007a3.63,3.63,0,0,1,.636.3q.3.153.59.323t.589.373q.133.09.263.184l.129.095c.045.034.167.108.051.038a3.846,3.846,0,0,1,.513.427q.25.221.486.457a.692.692,0,0,0,.978-.978,11.517,11.517,0,0,0-15.316-.884,11.4,11.4,0,0,0-3.093,3.746,11.541,11.541,0,0,0-.238,10.1,11.37,11.37,0,0,0,2.928,3.91,11.526,11.526,0,0,0,15.168-.04,11.081,11.081,0,0,0,.973-.96.692.692,0,0,0-.979-.978Z" transform="translate(-523.204 -782.198)" fill="#225f2b"/>
      <path id="Path_539" data-name="Path 539" d="M525.434,791.883l-.192.086c-.039.017-.208.088-.084.037-.14.057-.28.114-.421.168q-.4.151-.8.28a15.277,15.277,0,0,1-1.689.435q-.212.042-.426.078l-.214.034-.092.014-.093.014c.088-.012-.042.005-.063.008l-.093.011-.218.024q-.234.025-.469.042a15.7,15.7,0,0,1-1.654.034q-.685-.023-1.366-.105l-.1-.012c.107.013-.063-.009-.1-.014q-.176-.026-.351-.056-.325-.055-.648-.125a15.277,15.277,0,0,1-2.549-.786c-.025-.01-.191-.076-.087-.036s-.066-.029-.086-.037q-.147-.064-.293-.131-.3-.139-.6-.291-.578-.3-1.129-.643t-1.067-.732a.661.661,0,0,1-.126-.1c.008.011.128.1.032.025l-.054-.042q-.134-.105-.265-.213-.245-.2-.481-.413a15.5,15.5,0,0,1-1.786-1.892l-.1-.125c-.076-.1.087.116-.016-.022-.068-.091-.136-.181-.2-.273q-.187-.257-.363-.522-.359-.541-.672-1.11t-.578-1.169l-.064-.147c-.069-.16.036.09-.011-.025s-.087-.213-.128-.321q-.121-.312-.228-.63a15.325,15.325,0,0,1-.631-2.589q-.013-.082-.024-.164c-.023-.163.012.1,0-.028s-.029-.237-.041-.355q-.035-.334-.055-.67-.042-.691-.022-1.384t.1-1.391c.007-.055.014-.11.021-.166.01-.08-.009.068-.009.066a.6.6,0,0,1,.013-.094q.024-.164.051-.328.056-.337.127-.672a15.3,15.3,0,0,1,.77-2.531l.061-.149c.047-.115-.053.12.011-.025.046-.105.092-.21.139-.315q.133-.292.279-.578.3-.59.65-1.152t.73-1.07l.1-.127c.074-.1-.09.114.017-.022.07-.089.141-.178.212-.265q.2-.246.412-.483a15.5,15.5,0,0,1,1.869-1.778l.124-.1.071-.056-.05.039a1.421,1.421,0,0,1,.272-.2q.266-.194.54-.377.54-.361,1.108-.675t1.167-.581l.147-.065.063-.027c.113-.049-.027.008-.038.016a1.493,1.493,0,0,1,.32-.129q.3-.118.607-.223a15.3,15.3,0,0,1,2.608-.646l.141-.021c.022,0,.209-.028.1-.014l.1-.012.19-.022q.346-.038.693-.06.762-.048,1.527-.023.461.016.921.059.212.02.423.046l.07.008.037.005.257.038a.71.71,0,0,0,.851-.483.7.7,0,0,0-.483-.851,16.469,16.469,0,0,0-6.5.26,15.924,15.924,0,0,0-5.036,2.23,16.48,16.48,0,0,0-4.008,3.825,15.992,15.992,0,0,0-3.118,10.576,16.322,16.322,0,0,0,1.372,5.556,16.109,16.109,0,0,0,7.385,7.765,16.3,16.3,0,0,0,5.469,1.641,15.98,15.98,0,0,0,6.813-.68,17.249,17.249,0,0,0,1.713-.672.7.7,0,0,0,.248-.947.712.712,0,0,0-.947-.248Z" transform="translate(-503.348 -762.371)" fill="#225f2b"/>
    </g>
    <g id="Group_1657" data-name="Group 1657" transform="translate(532.319 761.539)">
      <path id="Path_540" data-name="Path 540" d="M660.1,762.341h12.325v3.74h-7.748v4.607h7.24V774.4h-7.24V782.5H660.1Z" transform="translate(-659.842 -762.192)" fill="#225f2b"/>
      <path id="Path_541" data-name="Path 541" d="M749.222,762.341V782.5h-4.577V762.341Z" transform="translate(-728.621 -762.192)" fill="#225f2b"/>
      <path id="Path_542" data-name="Path 542" d="M790.366,761.958a37.329,37.329,0,0,1,6.163-.419c2.812,0,4.816.538,6.162,1.615a5.894,5.894,0,0,1,2.154,4.667,6.444,6.444,0,0,1-1.855,4.787,9.35,9.35,0,0,1-6.552,2.124,11.485,11.485,0,0,1-1.556-.09v7.21h-4.517Zm4.517,9.154a6.962,6.962,0,0,0,1.526.12c2.423,0,3.919-1.227,3.919-3.291,0-1.855-1.286-2.962-3.56-2.962a7.762,7.762,0,0,0-1.885.18Z" transform="translate(-765.816 -761.539)" fill="#225f2b"/>
      <path id="Path_543" data-name="Path 543" d="M658.71,887.877h2.4v.623h-1.641v1.148H661v.623h-1.53v1.765h-.759Z" transform="translate(-658.71 -864.319)" fill="#225f2b"/>
      <path id="Path_544" data-name="Path 544" d="M675.279,887.761a.426.426,0,1,1-.426-.413A.4.4,0,0,1,675.279,887.761Zm-.808,3.844v-3h.765v3Z" transform="translate(-671.497 -863.888)" fill="#225f2b"/>
      <path id="Path_545" data-name="Path 545" d="M683.025,894.664c0-.346-.006-.636-.025-.895h.666l.037.451h.019a1.084,1.084,0,0,1,.957-.518c.524,0,1.067.339,1.067,1.29v1.783h-.759v-1.7c0-.432-.161-.759-.574-.759a.637.637,0,0,0-.592.444.778.778,0,0,0-.031.247v1.765h-.765Z" transform="translate(-678.471 -869.057)" fill="#225f2b"/>
      <path id="Path_546" data-name="Path 546" d="M702.833,896.774l-.049-.333h-.019a1.116,1.116,0,0,1-.888.4.892.892,0,0,1-.944-.895c0-.759.672-1.141,1.783-1.135v-.049c0-.2-.08-.524-.611-.524a1.592,1.592,0,0,0-.808.222l-.148-.494a2.162,2.162,0,0,1,1.086-.265,1.124,1.124,0,0,1,1.24,1.265v1.086a4.808,4.808,0,0,0,.043.722Zm-.1-1.468c-.537-.012-1.049.1-1.049.561a.4.4,0,0,0,.432.432.615.615,0,0,0,.592-.413.541.541,0,0,0,.025-.167Z" transform="translate(-693.06 -869.057)" fill="#225f2b"/>
      <path id="Path_547" data-name="Path 547" d="M718.762,894.664c0-.346-.006-.636-.025-.895h.666l.037.451h.018a1.084,1.084,0,0,1,.957-.518c.524,0,1.067.339,1.067,1.29v1.783h-.759v-1.7c0-.432-.161-.759-.574-.759a.637.637,0,0,0-.592.444.775.775,0,0,0-.031.247v1.765h-.765Z" transform="translate(-707.544 -869.057)" fill="#225f2b"/>
      <path id="Path_548" data-name="Path 548" d="M739.171,896.681a2.2,2.2,0,0,1-.852.154,1.443,1.443,0,0,1-1.549-1.53,1.554,1.554,0,0,1,1.672-1.6,1.9,1.9,0,0,1,.734.142l-.136.568a1.341,1.341,0,0,0-.574-.117.973.973,0,0,0,0,1.944,1.483,1.483,0,0,0,.6-.117Z" transform="translate(-722.215 -869.057)" fill="#225f2b"/>
      <path id="Path_549" data-name="Path 549" d="M753.273,887.761a.426.426,0,1,1-.426-.413A.4.4,0,0,1,753.273,887.761Zm-.808,3.844v-3h.765v3Z" transform="translate(-734.947 -863.888)" fill="#225f2b"/>
      <path id="Path_550" data-name="Path 550" d="M761.9,896.774l-.049-.333h-.019a1.116,1.116,0,0,1-.888.4.892.892,0,0,1-.944-.895c0-.759.673-1.141,1.783-1.135v-.049c0-.2-.08-.524-.611-.524a1.592,1.592,0,0,0-.808.222l-.148-.494a2.162,2.162,0,0,1,1.086-.265,1.124,1.124,0,0,1,1.24,1.265v1.086a4.8,4.8,0,0,0,.043.722Zm-.1-1.468c-.537-.012-1.049.1-1.049.561a.4.4,0,0,0,.432.432.615.615,0,0,0,.592-.413.541.541,0,0,0,.025-.167Z" transform="translate(-741.112 -869.057)" fill="#225f2b"/>
      <path id="Path_551" data-name="Path 551" d="M777.935,886.686h.765v4.381h-.765Z" transform="translate(-755.703 -863.35)" fill="#225f2b"/>
      <path id="Path_552" data-name="Path 552" d="M659.469,927.586v4.159h-.759v-4.159Z" transform="translate(-658.71 -896.623)" fill="#225f2b"/>
      <path id="Path_553" data-name="Path 553" d="M667.372,934.373c0-.346-.006-.636-.025-.895h.666l.037.45h.018a1.083,1.083,0,0,1,.956-.518c.525,0,1.068.339,1.068,1.289v1.783h-.759v-1.7c0-.432-.16-.759-.574-.759a.637.637,0,0,0-.592.444.77.77,0,0,0-.031.247v1.765h-.765Z" transform="translate(-665.737 -901.361)" fill="#225f2b"/>
      <path id="Path_554" data-name="Path 554" d="M685.792,929.174v.858h.722v.568h-.722v1.327c0,.364.1.555.389.555a1.117,1.117,0,0,0,.3-.037l.012.58a1.666,1.666,0,0,1-.549.074.878.878,0,0,1-.654-.247,1.2,1.2,0,0,1-.234-.839V930.6h-.432v-.568h.432v-.679Z" transform="translate(-679.789 -897.915)" fill="#225f2b"/>
      <path id="Path_555" data-name="Path 555" d="M697.36,935.193a.816.816,0,0,0,.925.777,2.26,2.26,0,0,0,.833-.136l.111.525a2.833,2.833,0,0,1-1.049.185,1.422,1.422,0,0,1-1.549-1.518,1.488,1.488,0,0,1,1.468-1.616,1.306,1.306,0,0,1,1.3,1.462,1.851,1.851,0,0,1-.025.321Zm1.32-.531a.646.646,0,0,0-.623-.734.742.742,0,0,0-.7.734Z" transform="translate(-689.561 -901.361)" fill="#225f2b"/>
      <path id="Path_556" data-name="Path 556" d="M714.733,926.4h.765v4.381h-.765Z" transform="translate(-704.286 -895.654)" fill="#225f2b"/>
      <path id="Path_557" data-name="Path 557" d="M723.236,926.4H724v4.381h-.765Z" transform="translate(-711.204 -895.654)" fill="#225f2b"/>
      <path id="Path_558" data-name="Path 558" d="M732.36,927.47a.426.426,0,1,1-.426-.413A.4.4,0,0,1,732.36,927.47Zm-.808,3.844v-3h.765v3Z" transform="translate(-717.934 -896.193)" fill="#225f2b"/>
      <path id="Path_559" data-name="Path 559" d="M742.122,933.478c-.012.2-.025.45-.025.864v1.7a1.447,1.447,0,0,1-1.6,1.728,2.128,2.128,0,0,1-1.049-.241l.167-.574a1.816,1.816,0,0,0,.876.228.8.8,0,0,0,.864-.907v-.259h-.012a1.015,1.015,0,0,1-.876.444A1.333,1.333,0,0,1,739.185,935a1.439,1.439,0,0,1,1.364-1.586.946.946,0,0,1,.87.469h.012l.031-.4Zm-.783,1.2a.737.737,0,0,0-.025-.2.63.63,0,0,0-.617-.487c-.426,0-.74.37-.74.981,0,.512.259.925.734.925a.648.648,0,0,0,.617-.456,1.309,1.309,0,0,0,.031-.271Z" transform="translate(-724.179 -901.361)" fill="#225f2b"/>
      <path id="Path_560" data-name="Path 560" d="M758.874,935.193a.816.816,0,0,0,.926.777,2.261,2.261,0,0,0,.833-.136l.111.525a2.83,2.83,0,0,1-1.049.185,1.422,1.422,0,0,1-1.549-1.518,1.488,1.488,0,0,1,1.469-1.616,1.306,1.306,0,0,1,1.3,1.462,1.882,1.882,0,0,1-.025.321Zm1.32-.531a.646.646,0,0,0-.623-.734.743.743,0,0,0-.7.734Z" transform="translate(-739.604 -901.361)" fill="#225f2b"/>
      <path id="Path_561" data-name="Path 561" d="M776.139,934.373c0-.346-.006-.636-.025-.895h.667l.037.45h.019a1.082,1.082,0,0,1,.956-.518c.524,0,1.068.339,1.068,1.289v1.783H778.1v-1.7c0-.432-.16-.759-.574-.759a.637.637,0,0,0-.592.444.763.763,0,0,0-.031.247v1.765h-.765Z" transform="translate(-754.222 -901.361)" fill="#225f2b"/>
      <path id="Path_562" data-name="Path 562" d="M796.548,936.39a2.2,2.2,0,0,1-.852.154,1.443,1.443,0,0,1-1.549-1.53,1.554,1.554,0,0,1,1.672-1.6,1.9,1.9,0,0,1,.734.142l-.136.568a1.337,1.337,0,0,0-.574-.117.973.973,0,0,0,0,1.944,1.484,1.484,0,0,0,.6-.117Z" transform="translate(-768.893 -901.361)" fill="#225f2b"/>
      <path id="Path_563" data-name="Path 563" d="M809.437,935.193a.816.816,0,0,0,.925.777,2.26,2.26,0,0,0,.833-.136l.111.525a2.832,2.832,0,0,1-1.049.185,1.422,1.422,0,0,1-1.549-1.518,1.488,1.488,0,0,1,1.468-1.616,1.306,1.306,0,0,1,1.3,1.462,1.872,1.872,0,0,1-.025.321Zm1.32-.531a.646.646,0,0,0-.623-.734.742.742,0,0,0-.7.734Z" transform="translate(-780.738 -901.361)" fill="#225f2b"/>
      <path id="Path_564" data-name="Path 564" d="M658.71,967.216a6.577,6.577,0,0,1,1.16-.086,1.88,1.88,0,0,1,1.228.339,1.175,1.175,0,0,1,.407.919,1.26,1.26,0,0,1-.358.944,1.836,1.836,0,0,1-1.314.444,2.143,2.143,0,0,1-.37-.025v1.567h-.753Zm.753,1.937a1.531,1.531,0,0,0,.37.031c.568,0,.913-.278.913-.765,0-.463-.321-.71-.845-.71a2.1,2.1,0,0,0-.438.037Z" transform="translate(-658.71 -928.793)" fill="#225f2b"/>
      <path id="Path_565" data-name="Path 565" d="M676.942,966.1h.765v4.381h-.765Z" transform="translate(-673.542 -927.958)" fill="#225f2b"/>
      <path id="Path_566" data-name="Path 566" d="M686.223,976.192l-.05-.333h-.018a1.116,1.116,0,0,1-.888.4.892.892,0,0,1-.944-.895c0-.759.673-1.142,1.783-1.135v-.049c0-.2-.08-.525-.611-.525a1.59,1.59,0,0,0-.808.222l-.148-.494a2.167,2.167,0,0,1,1.086-.265,1.124,1.124,0,0,1,1.24,1.265v1.086a4.84,4.84,0,0,0,.043.722Zm-.1-1.468c-.537-.013-1.049.1-1.049.561a.4.4,0,0,0,.432.432.615.615,0,0,0,.592-.413.549.549,0,0,0,.025-.167Z" transform="translate(-679.546 -933.665)" fill="#225f2b"/>
      <path id="Path_567" data-name="Path 567" d="M701.61,968.883v.858h.722v.568h-.722v1.327c0,.364.1.555.389.555a1.118,1.118,0,0,0,.3-.037l.012.58a1.661,1.661,0,0,1-.549.074.88.88,0,0,1-.654-.247,1.2,1.2,0,0,1-.234-.839v-1.413h-.432v-.568h.432v-.679Z" transform="translate(-692.657 -930.219)" fill="#225f2b"/>
      <path id="Path_568" data-name="Path 568" d="M712.36,970.189v-2.437h-.407v-.568h.407v-.13a1.4,1.4,0,0,1,.364-1.024,1.148,1.148,0,0,1,.783-.29,1.476,1.476,0,0,1,.488.074l-.056.586a.881.881,0,0,0-.321-.055c-.376,0-.506.315-.506.685v.154h.66v.568h-.654v2.437Z" transform="translate(-702.025 -927.662)" fill="#225f2b"/>
      <path id="Path_569" data-name="Path 569" d="M725.887,974.662a1.489,1.489,0,0,1-1.542,1.6,1.453,1.453,0,0,1-1.506-1.549,1.483,1.483,0,0,1,1.555-1.592A1.442,1.442,0,0,1,725.887,974.662Zm-2.264.031c0,.58.284,1.018.747,1.018.432,0,.734-.426.734-1.03,0-.469-.21-1.006-.728-1.006C723.839,973.674,723.623,974.193,723.623,974.692Z" transform="translate(-710.881 -933.665)" fill="#225f2b"/>
      <path id="Path_570" data-name="Path 570" d="M742.421,974.155c0-.407-.006-.7-.024-.969h.66l.024.574h.025a.9.9,0,0,1,.821-.642.8.8,0,0,1,.179.018v.716a1.055,1.055,0,0,0-.222-.025.669.669,0,0,0-.679.574,1.282,1.282,0,0,0-.025.234v1.555h-.759Z" transform="translate(-726.792 -933.665)" fill="#225f2b"/>
      <path id="Path_571" data-name="Path 571" d="M754.2,974.081c0-.346-.006-.635-.025-.894h.654l.031.444h.019a1.039,1.039,0,0,1,.925-.512.866.866,0,0,1,.833.555h.012a1.135,1.135,0,0,1,.37-.376,1,1,0,0,1,.6-.179c.5,0,1.006.339,1.006,1.3v1.771h-.74v-1.66c0-.5-.173-.8-.537-.8a.579.579,0,0,0-.53.4,1.075,1.075,0,0,0-.037.253v1.8h-.74v-1.74c0-.42-.166-.716-.518-.716a.593.593,0,0,0-.543.432.643.643,0,0,0-.043.247v1.777H754.2Z" transform="translate(-736.374 -933.665)" fill="#225f2b"/>
    </g>
  </g>
</svg>
